<svg id="Component_29_2" data-name="Component 29 – 2" xmlns="http://www.w3.org/2000/svg" width="412" height="444" viewBox="0 0 412 444">
  <text id="Calendar" transform="translate(412 438)" fill="#fff" font-size="30" font-family="Lato-Medium, Lato" font-weight="500"><tspan x="-117" y="0">Calendar</tspan></text>
  <g id="Group_142" data-name="Group 142" transform="translate(-1343 -2610)" opacity="0">
    <rect id="Rectangle_5" data-name="Rectangle 5" width="412" height="388" rx="10" transform="translate(1343 2610)" fill="#f2f2f2"/>
    <text id="SUN" transform="translate(1373 2695)" fill="#232323" font-size="12" font-family="Helvetica-Bold, Helvetica" font-weight="700"><tspan x="0" y="0">SUN</tspan></text>
    <text id="_3" data-name="3" transform="translate(1387 2790)" fill="#232323" font-size="12" font-family="Lato-Regular, Lato"><tspan x="-3" y="0">3</tspan></text>
    <text id="_10" data-name="10" transform="translate(1387 2833)" fill="#232323" font-size="11" font-family="Lato-Regular, Lato"><tspan x="-6" y="0">10</tspan></text>
    <text id="_17" data-name="17" transform="translate(1387 2877)" fill="#232323" font-size="11" font-family="Lato-Regular, Lato"><tspan x="-6" y="0">17</tspan></text>
    <text id="_31" data-name="31" transform="translate(1387 2966)" fill="#232323" font-size="11" font-family="Lato-Regular, Lato"><tspan x="-6" y="0">31</tspan></text>
    <text id="MON" transform="translate(1428 2695)" fill="#232323" font-size="12" font-family="Helvetica-Bold, Helvetica" font-weight="700"><tspan x="0" y="0">MON</tspan></text>
    <text id="_4" data-name="4" transform="translate(1442 2790)" fill="#232323" font-size="12" font-family="Lato-Regular, Lato"><tspan x="-3" y="0">4</tspan></text>
    <text id="_11" data-name="11" transform="translate(1442 2834)" fill="#232323" font-size="12" font-family="Lato-Regular, Lato"><tspan x="-6" y="0">11</tspan></text>
    <text id="_18" data-name="18" transform="translate(1442 2877)" fill="#232323" font-size="11" font-family="Lato-Regular, Lato"><tspan x="-6" y="0">18</tspan></text>
    <text id="_25" data-name="25" transform="translate(1442 2922)" fill="#232323" font-size="11" font-family="Lato-Regular, Lato"><tspan x="-6" y="0">25</tspan></text>
    <text id="TUE" transform="translate(1486 2695)" fill="#232323" font-size="12" font-family="Helvetica-Bold, Helvetica" font-weight="700"><tspan x="0" y="0">TUE</tspan></text>
    <text id="_5" data-name="5" transform="translate(1497 2790)" fill="#232323" font-size="12" font-family="Lato-Regular, Lato"><tspan x="-3" y="0">5</tspan></text>
    <text id="_12" data-name="12" transform="translate(1498 2833)" fill="#232323" font-size="11" font-family="Lato-Regular, Lato"><tspan x="-6" y="0">12</tspan></text>
    <text id="_19" data-name="19" transform="translate(1498 2877)" fill="#232323" font-size="11" font-family="Lato-Regular, Lato"><tspan x="-6" y="0">19</tspan></text>
    <text id="_26" data-name="26" transform="translate(1498 2922)" fill="#232323" font-size="11" font-family="Lato-Regular, Lato"><tspan x="-6" y="0">26</tspan></text>
    <text id="WED" transform="translate(1540 2695)" fill="#232323" font-size="12" font-family="Helvetica-Bold, Helvetica" font-weight="700"><tspan x="0" y="0">WED</tspan></text>
    <text id="_6" data-name="6" transform="translate(1554 2790)" fill="#232323" font-size="12" font-family="Lato-Regular, Lato"><tspan x="-3" y="0">6</tspan></text>
    <text id="_13" data-name="13" transform="translate(1554 2833)" fill="#232323" font-size="11" font-family="Lato-Regular, Lato"><tspan x="-6" y="0">13</tspan></text>
    <text id="_20" data-name="20" transform="translate(1554 2877)" fill="#232323" font-size="11" font-family="Lato-Regular, Lato"><tspan x="-6" y="0">20</tspan></text>
    <text id="_27" data-name="27" transform="translate(1554 2922)" fill="#232323" font-size="11" font-family="Lato-Regular, Lato"><tspan x="-6" y="0">27</tspan></text>
    <text id="THU" transform="translate(1598 2695)" fill="#232323" font-size="12" font-family="Helvetica-Bold, Helvetica" font-weight="700"><tspan x="0" y="0">THU</tspan></text>
    <text id="_7" data-name="7" transform="translate(1611 2790)" fill="#232323" font-size="12" font-family="Lato-Regular, Lato"><tspan x="-3" y="0">7</tspan></text>
    <text id="_14" data-name="14" transform="translate(1611 2833)" fill="#232323" font-size="11" font-family="Lato-Regular, Lato"><tspan x="-6" y="0">14</tspan></text>
    <text id="_21" data-name="21" transform="translate(1611 2877)" fill="#232323" font-size="11" font-family="Lato-Regular, Lato"><tspan x="-6" y="0">21</tspan></text>
    <text id="_28" data-name="28" transform="translate(1611 2922)" fill="#232323" font-size="11" font-family="Lato-Regular, Lato"><tspan x="-6" y="0">28</tspan></text>
    <text id="FRI" transform="translate(1653 2695)" fill="#232323" font-size="12" font-family="Helvetica-Bold, Helvetica" font-weight="700"><tspan x="0" y="0">FRI</tspan></text>
    <text id="_1" data-name="1" transform="translate(1663 2746)" fill="#232323" font-size="12" font-family="Lato-Regular, Lato"><tspan x="-3" y="0">1</tspan></text>
    <text id="_8" data-name="8" transform="translate(1663 2790)" fill="#232323" font-size="12" font-family="Lato-Regular, Lato"><tspan x="-3" y="0">8</tspan></text>
    <text id="_15" data-name="15" transform="translate(1663 2833)" fill="#232323" font-size="11" font-family="Lato-Regular, Lato"><tspan x="-6" y="0">15</tspan></text>
    <text id="_22" data-name="22" transform="translate(1663 2877)" fill="#232323" font-size="11" font-family="Lato-Regular, Lato"><tspan x="-6" y="0">22</tspan></text>
    <text id="_29" data-name="29" transform="translate(1663 2922)" fill="#232323" font-size="11" font-family="Lato-Regular, Lato"><tspan x="-6" y="0">29</tspan></text>
    <text id="SAT" transform="translate(1702 2695)" fill="#232323" font-size="12" font-family="Helvetica-Bold, Helvetica" font-weight="700"><tspan x="0" y="0">SAT</tspan></text>
    <text id="_2" data-name="2" transform="translate(1714 2746)" fill="#232323" font-size="12" font-family="Lato-Regular, Lato"><tspan x="-3" y="0">2</tspan></text>
    <text id="_9" data-name="9" transform="translate(1714 2790)" fill="#232323" font-size="12" font-family="Lato-Regular, Lato"><tspan x="-3" y="0">9</tspan></text>
    <text id="_16" data-name="16" transform="translate(1714 2833)" fill="#232323" font-size="11" font-family="Lato-Regular, Lato"><tspan x="-6" y="0">16</tspan></text>
    <text id="_23" data-name="23" transform="translate(1714 2877)" fill="#232323" font-size="11" font-family="Lato-Regular, Lato"><tspan x="-6" y="0">23</tspan></text>
    <text id="_30" data-name="30" transform="translate(1714 2922)" fill="#232323" font-size="11" font-family="Lato-Regular, Lato"><tspan x="-6" y="0">30</tspan></text>
    <ellipse id="Ellipse_3" data-name="Ellipse 3" cx="20" cy="19.5" rx="20" ry="19.5" transform="translate(1367 2900)" fill="#a8a8a8"/>
    <text id="Today" transform="translate(1689 2658)" fill="#232323" font-size="14" font-family="Lato-Regular, Lato"><tspan x="0" y="0">Today</tspan></text>
    <g id="Group_18" data-name="Group 18" transform="translate(1359.374 2637.728)">
      <path id="Icon_ionic-ios-arrow-back" data-name="Icon ionic-ios-arrow-back" d="M13.011,11.3l3.865-3.862a.73.73,0,0,0-1.034-1.031l-4.378,4.375a.728.728,0,0,0-.021,1.006l4.4,4.406a.73.73,0,1,0,1.034-1.031Z" transform="translate(1.375 3.886)" fill="#232323"/>
    </g>
    <g id="Group_19" data-name="Group 19" transform="translate(1486.5 2637.728)">
      <path id="Icon_ionic-ios-arrow-back-2" data-name="Icon ionic-ios-arrow-back" d="M15.33,11.3,11.465,7.438A.73.73,0,0,1,12.5,6.407l4.378,4.375a.728.728,0,0,1,.021,1.006l-4.4,4.406a.73.73,0,0,1-1.034-1.031Z" transform="translate(0.981 3.886)" fill="#232323"/>
    </g>
    <text id="July" transform="translate(1418.401 2658)" fill="#232323" font-size="18" font-family="Lato-Regular, Lato"><tspan x="0" y="0">July</tspan></text>
    <text id="_2023" data-name="2023" transform="translate(1552.401 2659)" fill="#232323" font-size="19" font-family="Lato-Regular, Lato"><tspan x="0" y="0">2023</tspan></text>
    <text id="_24" data-name="24" transform="translate(1387 2924)" fill="#232323" font-size="15" font-family="Lato-Regular, Lato"><tspan x="-8" y="0">24</tspan></text>
  </g>
</svg>
