<svg xmlns="http://www.w3.org/2000/svg" width="1070" height="229" viewBox="0 0 1070 229">
  <g id="Component_28_11" data-name="Component 28 – 11" transform="translate(1)">
    <text id="Bees_are_vital_pollinators_and_are_responsible_for_pollinating_approximately_one-third_of_the_food_we_eat." data-name="Bees are vital pollinators and are responsible
for pollinating approximately one-third
of the food we eat." transform="translate(534 54)" fill="#fff" font-size="55" font-family="Lato-Regular, Lato"><tspan x="-534" y="0">Bees are vital pollinators and are responsible</tspan><tspan x="-463" y="66">for pollinating approximately one-third</tspan><tspan x="-227" y="132">of the food we eat.</tspan></text>
    <g id="Icon_metro-shuffle" data-name="Icon metro-shuffle" transform="translate(523 208.65)">
      <path id="Icon_metro-shuffle-2" data-name="Icon metro-shuffle" d="M20.014,18.629H17.709L14.075,15l3.634-3.634h2.305V15L25.1,9.908,20.014,4.82V8.454H17.106a1.454,1.454,0,0,0-1.028.426l-4.06,4.06L7.959,8.88a1.454,1.454,0,0,0-1.028-.426H2.571v2.907H6.329L9.963,15,6.329,18.629H2.571v2.907H6.931a1.453,1.453,0,0,0,1.028-.426l4.06-4.06,4.06,4.06a1.453,1.453,0,0,0,1.028.426h2.907V25.17L25.1,20.083,20.014,15v3.634Z" transform="translate(-2.571 -4.82)" fill="#fff" opacity="0.5"/>
    </g>
  </g>
</svg>
