<svg id="Group_161" data-name="Group 161" xmlns="http://www.w3.org/2000/svg" xmlns:xlink="http://www.w3.org/1999/xlink" width="241.829" height="64.878" viewBox="0 0 241.829 64.878">
  <defs>
    <clipPath id="clip-path">
      <rect id="Rectangle_69" data-name="Rectangle 69" width="241.829" height="64.878" fill="none"/>
    </clipPath>
  </defs>
  <g id="Group_160" data-name="Group 160" clip-path="url(#clip-path)">
    <path id="Path_208" data-name="Path 208" d="M49.447,53.621a3.754,3.754,0,0,0-3.753,3.749,3.7,3.7,0,0,0,.42,1.689l-6.843,8.147V59.582l4.294-5.712a3.745,3.745,0,1,0-2.853-3.63,3.7,3.7,0,0,0,.517,1.865l-1.959,2.6V45.068a3.746,3.746,0,1,0-2.928,0v9.642l-1.96-2.606A3.7,3.7,0,0,0,34.9,50.24a3.809,3.809,0,1,0-2.853,3.63l4.3,5.714v7.626L29.5,59.059a3.7,3.7,0,0,0,.42-1.689,3.752,3.752,0,1,0-3.753,3.752,3.679,3.679,0,0,0,1.089-.18l9.088,10.819V86.922a1.464,1.464,0,0,0,2.928,0V71.757l9.086-10.816a3.677,3.677,0,0,0,1.089.18,3.751,3.751,0,0,0,0-7.5m-4.981-4.372a.991.991,0,1,1-.993.991.991.991,0,0,1,.993-.991M31.148,51.23a.991.991,0,1,1,.992-.99.99.99,0,0,1-.992.99m-4.981,7.131a.99.99,0,1,1,.992-.991.992.992,0,0,1-.992.991M37.805,42.605a.992.992,0,1,1,.99-.991.989.989,0,0,1-.99.991M49.447,58.361a.99.99,0,1,1,.99-.991.994.994,0,0,1-.99.991" transform="translate(-13.917 -23.507)" fill="#fff"/>
    <path id="Path_209" data-name="Path 209" d="M44.927,22.192C40.881,14.625,30.726,5.305,25.033.425a1.747,1.747,0,0,0-2.285,0C17.055,5.3,6.9,14.62,2.854,22.192A23.829,23.829,0,0,0,16.785,56.263a1.756,1.756,0,1,0,1.037-3.355,20.32,20.32,0,0,1-11.87-29.06c3.529-6.6,12.309-14.859,17.939-19.766C29.521,8.99,38.3,17.252,41.828,23.847a20.319,20.319,0,0,1-11.87,29.06,1.756,1.756,0,0,0,.517,3.434,1.709,1.709,0,0,0,.519-.08,23.828,23.828,0,0,0,13.933-34.07" transform="translate(0 0)" fill="#fff"/>
    <path id="Path_210" data-name="Path 210" d="M184.307,66.972l-.032,5.036H156.131V26.334h28.144V31.37H162.314V46.542H180.1v4.845H162.314V66.972Z" transform="translate(-96.936 -16.35)" fill="#fff"/>
    <path id="Path_211" data-name="Path 211" d="M265.162,66.545a2.543,2.543,0,0,1-.51.542,1.152,1.152,0,0,1-.7.191,1.894,1.894,0,0,1-1.052-.4q-.574-.4-1.418-.877a11.424,11.424,0,0,0-2.072-.877,11.178,11.178,0,0,0-7.219.446,8.1,8.1,0,0,0-3.044,2.438,11.031,11.031,0,0,0-1.849,3.857,19.137,19.137,0,0,0-.621,5.068,18.5,18.5,0,0,0,.669,5.211,11.114,11.114,0,0,0,1.9,3.825,8.154,8.154,0,0,0,2.964,2.359,9.1,9.1,0,0,0,3.9.813,9.38,9.38,0,0,0,5.626-1.594q.876-.605,1.466-1.1a1.827,1.827,0,0,1,1.164-.494,1.249,1.249,0,0,1,1.084.541l1.594,2.072a11.319,11.319,0,0,1-2.39,2.23,14.7,14.7,0,0,1-2.884,1.546,15.7,15.7,0,0,1-3.236.908,20.536,20.536,0,0,1-3.442.287,14.108,14.108,0,0,1-5.626-1.116,12.822,12.822,0,0,1-4.51-3.235,15.147,15.147,0,0,1-3-5.211,23.034,23.034,0,0,1-.08-13.706A15.1,15.1,0,0,1,244.811,65a13.327,13.327,0,0,1,4.749-3.458,15.941,15.941,0,0,1,6.486-1.243,15.309,15.309,0,0,1,6.008,1.1,14.39,14.39,0,0,1,4.606,3.107Z" transform="translate(-149.551 -37.437)" fill="#fff"/>
    <path id="Path_212" data-name="Path 212" d="M335.073,60.3a16.47,16.47,0,0,1,6.375,1.179,13.668,13.668,0,0,1,4.844,3.347,14.693,14.693,0,0,1,3.076,5.244,22.678,22.678,0,0,1,0,13.753,14.709,14.709,0,0,1-3.076,5.227,13.476,13.476,0,0,1-4.844,3.331,16.662,16.662,0,0,1-6.375,1.164,16.87,16.87,0,0,1-6.422-1.164,13.445,13.445,0,0,1-4.861-3.331,14.708,14.708,0,0,1-3.076-5.227,22.677,22.677,0,0,1,0-13.753,14.692,14.692,0,0,1,3.076-5.244,13.634,13.634,0,0,1,4.861-3.347,16.675,16.675,0,0,1,6.422-1.179m0,28.813q4.782,0,7.14-3.2t2.358-8.94q0-5.769-2.358-8.988t-7.14-3.219a10.016,10.016,0,0,0-4.223.829,7.848,7.848,0,0,0-3,2.39,10.619,10.619,0,0,0-1.785,3.841,20.582,20.582,0,0,0-.59,5.147q0,5.738,2.375,8.94t7.219,3.2" transform="translate(-198.458 -37.437)" fill="#fff"/>
    <path id="Path_213" data-name="Path 213" d="M425.436,31.529H410.646V72.009h-6.151V31.529H389.674v-5.2h35.762Z" transform="translate(-241.935 -16.35)" fill="#fff"/>
    <path id="Path_214" data-name="Path 214" d="M474.33,65.261A18.434,18.434,0,0,1,480.1,61.4a17.811,17.811,0,0,1,6.853-1.275,12.239,12.239,0,0,1,4.813.893,9.875,9.875,0,0,1,3.538,2.486,10.536,10.536,0,0,1,2.167,3.857,16.067,16.067,0,0,1,.733,4.972V92.991h-2.517a2.469,2.469,0,0,1-1.275-.271,1.841,1.841,0,0,1-.7-1.068l-.638-3.06a31.593,31.593,0,0,1-2.486,2.088,14.236,14.236,0,0,1-2.55,1.529,13.855,13.855,0,0,1-2.853.957,15.627,15.627,0,0,1-3.363.334,11.624,11.624,0,0,1-3.538-.525A8.186,8.186,0,0,1,475.4,91.4a7.407,7.407,0,0,1-1.944-2.661,9.3,9.3,0,0,1-.717-3.809,7.106,7.106,0,0,1,1.051-3.681,9.218,9.218,0,0,1,3.41-3.14,22.379,22.379,0,0,1,6.152-2.247,46.952,46.952,0,0,1,9.307-1V72.337a8.631,8.631,0,0,0-1.626-5.689,5.861,5.861,0,0,0-4.749-1.929,10.205,10.205,0,0,0-3.522.526,13.236,13.236,0,0,0-2.454,1.179q-1.036.654-1.785,1.179a2.572,2.572,0,0,1-1.482.526,1.628,1.628,0,0,1-.988-.3,2.77,2.77,0,0,1-.7-.748Zm18.327,13.2a47.262,47.262,0,0,0-6.677.621,19.041,19.041,0,0,0-4.495,1.291,6.205,6.205,0,0,0-2.517,1.881,4.041,4.041,0,0,0-.781,2.422,5.349,5.349,0,0,0,.414,2.2,4.1,4.1,0,0,0,1.132,1.514,4.535,4.535,0,0,0,1.689.86,7.72,7.72,0,0,0,2.088.271,11.532,11.532,0,0,0,2.741-.3,10.3,10.3,0,0,0,2.343-.877,13.142,13.142,0,0,0,2.1-1.371,18.091,18.091,0,0,0,1.961-1.817Z" transform="translate(-293.506 -37.332)" fill="#fff"/>
    <path id="Path_215" data-name="Path 215" d="M568.395,42.287a16.607,16.607,0,0,1,4.6-3.761,12.135,12.135,0,0,1,5.913-1.4,11.762,11.762,0,0,1,5.115,1.084,10.62,10.62,0,0,1,3.872,3.139,14.676,14.676,0,0,1,2.439,4.989,23.847,23.847,0,0,1,.844,6.6,25.005,25.005,0,0,1-.957,7.139,16.187,16.187,0,0,1-2.757,5.5,12.524,12.524,0,0,1-4.383,3.538,13.064,13.064,0,0,1-5.8,1.259,11.057,11.057,0,0,1-5.371-1.2,11.759,11.759,0,0,1-3.809-3.394l-.286,2.932a1.365,1.365,0,0,1-1.466,1.211H562.69V22.972h5.7Zm0,19.857a9.12,9.12,0,0,0,3.426,2.964,9.657,9.657,0,0,0,4.1.861,8.205,8.205,0,0,0,6.98-3.219q2.421-3.219,2.423-9.594,0-5.928-2.151-8.717a7.293,7.293,0,0,0-6.136-2.789,8.981,8.981,0,0,0-4.83,1.275,14.23,14.23,0,0,0-3.808,3.6Z" transform="translate(-349.355 -14.263)" fill="#fff"/>
  </g>
</svg>
