<svg id="Component_27_2" data-name="Component 27 – 2" xmlns="http://www.w3.org/2000/svg" width="227" height="72" viewBox="0 0 227 72">
  <g id="Group_141" data-name="Group 141" transform="translate(-1629 -53)">
    <text id="_40.4_C_Podgorica_ME" data-name="40.4 °C
Podgorica, ME" transform="translate(1856 83)" fill="#fff" font-size="30" font-family="Lato-Medium, Lato" font-weight="500"><tspan x="-99" y="0">40.4 °C</tspan><tspan x="-191" y="36">Podgorica, ME</tspan></text>
    <path id="Icon_awesome-sun" data-name="Icon awesome-sun" d="M15,9.375A5.625,5.625,0,1,0,20.626,15,5.634,5.634,0,0,0,15,9.375Zm14.438,4.717L23.89,11.321l1.963-5.883A1.013,1.013,0,0,0,24.57,4.154L18.686,6.117,15.909.563a1.014,1.014,0,0,0-1.816,0L11.321,6.112,5.432,4.149A1.013,1.013,0,0,0,4.149,5.432l1.963,5.883L.563,14.092a1.014,1.014,0,0,0,0,1.816l5.549,2.772L4.149,24.57a1.013,1.013,0,0,0,1.283,1.283l5.883-1.963,2.772,5.549a1.014,1.014,0,0,0,1.816,0l2.772-5.549,5.883,1.963a1.013,1.013,0,0,0,1.283-1.283l-1.963-5.883,5.549-2.772a1.016,1.016,0,0,0,.012-1.822ZM20.3,20.3A7.5,7.5,0,1,1,20.3,9.7,7.508,7.508,0,0,1,20.3,20.3Z" transform="translate(1715 57)" fill="#fff"/>
  </g>
  <path id="Icon_awesome-eye-slash" data-name="Icon awesome-eye-slash" d="M12.721,15.9A5.7,5.7,0,0,1,7.041,10.61L2.87,7.387A13.25,13.25,0,0,0,1.411,9.6a1.286,1.286,0,0,0,0,1.16A12.751,12.751,0,0,0,12.721,17.81a12.348,12.348,0,0,0,3.1-.416l-2.063-1.6a5.73,5.73,0,0,1-1.034.1ZM25.2,18.211l-4.395-3.4a13.169,13.169,0,0,0,3.23-4.058,1.286,1.286,0,0,0,0-1.16A12.751,12.751,0,0,0,12.721,2.544a12.25,12.25,0,0,0-5.857,1.5L1.807.134A.636.636,0,0,0,.914.246l-.78,1a.636.636,0,0,0,.112.892L23.636,20.22a.636.636,0,0,0,.893-.112l.781-1a.636.636,0,0,0-.112-.892Zm-7.3-5.645-1.562-1.208a3.767,3.767,0,0,0-4.616-4.847,1.894,1.894,0,0,1,.37,1.121,1.854,1.854,0,0,1-.061.4L9.1,5.769a5.657,5.657,0,0,1,3.624-1.316,5.721,5.721,0,0,1,5.725,5.725,5.589,5.589,0,0,1-.553,2.39Z" transform="translate(0 4.646)" fill="#fff" opacity="0"/>
</svg>
